<svg xmlns="http://www.w3.org/2000/svg" width="512" height="512" fill="none" viewBox="0 0 512 512" id="devrev"><g clip-path="url(#clip0_84_15703)"><rect width="512" height="512" fill="#000" rx="60"></rect><path fill="#fff" d="M184.099 175.437V250.873C141.913 250.873 107.197 216.817 107.197 175.437 107.197 134.056 141.913 100 184.099 100 226.285 100 261 134.056 261 175.437H184.099zM324.719 336.564V412C282.533 412 247.817 377.944 247.817 336.564 247.817 295.183 282.533 261.127 324.719 261.127 366.905 261.127 401.62 295.183 401.62 336.564H324.719zM324.719 248.676L403.817 102.197H245.62L324.719 248.676zM184.099 409.803L263.197 263.324H105L184.099 409.803z"></path></g><defs><clipPath id="clip0_84_15703"><rect width="512" height="512" fill="#fff"></rect></clipPath></defs></svg>